<svg xmlns="http://www.w3.org/2000/svg" width="40" height="40" viewBox="0 0 40 40">
  <g id="Group_3039" data-name="Group 3039" transform="translate(-719 -1320)">
    <circle id="Ellipse_17" data-name="Ellipse 17" cx="20" cy="20" r="20" transform="translate(719 1320)" fill="#00a6d3"/>
    <path id="Icon_metro-air" data-name="Icon metro-air" d="M6.2,10.332c2.222-1.908,3.978-3.417,8.742-.725a11.62,11.62,0,0,0,5.67,1.778c2.69,0,4.435-1.5,5.942-2.79a1.319,1.319,0,0,0,.155-1.831A1.255,1.255,0,0,0,24.915,6.6c-2.221,1.911-3.978,3.419-8.742.725C9.882,3.778,6.933,6.31,4.564,8.345a1.32,1.32,0,0,0-.154,1.831,1.255,1.255,0,0,0,1.792.156ZM24.918,13.1c-2.221,1.908-3.978,3.419-8.742.725C9.882,10.272,6.933,12.8,4.564,14.839A1.319,1.319,0,0,0,4.41,16.67a1.254,1.254,0,0,0,1.792.159c2.222-1.909,3.978-3.418,8.742-.728a11.628,11.628,0,0,0,5.67,1.781c2.691,0,4.435-1.5,5.942-2.792a1.317,1.317,0,0,0,.155-1.829,1.254,1.254,0,0,0-1.794-.158Zm0,6.5c-2.221,1.911-3.978,3.419-8.742.728C9.882,16.77,6.933,19.3,4.564,21.337a1.319,1.319,0,0,0-.154,1.831,1.253,1.253,0,0,0,1.792.156c2.222-1.908,3.978-3.416,8.742-.725a11.655,11.655,0,0,0,5.67,1.781c2.691,0,4.435-1.5,5.942-2.792a1.319,1.319,0,0,0,.155-1.831,1.256,1.256,0,0,0-1.794-.159Z" transform="translate(723.321 1325.447)" fill="#fff"/>
  </g>
</svg>
