<svg xmlns="http://www.w3.org/2000/svg" width="40" height="40" viewBox="0 0 40 40">
  <g id="Group_3037" data-name="Group 3037" transform="translate(-156 -1229)">
    <path id="Path_783" data-name="Path 783" d="M20,0A20,20,0,1,1,0,20,20,20,0,0,1,20,0Z" transform="translate(156 1229)" fill="#00a6d3"/>
    <path id="Icon_awesome-child" data-name="Icon awesome-child" d="M6.564,3.938A3.938,3.938,0,1,1,10.5,7.877,3.938,3.938,0,0,1,6.564,3.938Zm13.928.075a1.75,1.75,0,0,0-2.475,0L13.278,8.752H7.727L2.988,4.014A1.75,1.75,0,1,0,.513,6.489l5.176,5.176V26.256a1.75,1.75,0,0,0,1.75,1.75h.875a1.75,1.75,0,0,0,1.75-1.75V20.13h.875v6.126a1.75,1.75,0,0,0,1.75,1.75h.875a1.75,1.75,0,0,0,1.75-1.75V11.665L20.49,6.489a1.75,1.75,0,0,0,0-2.475Z" transform="translate(165 1235)" fill="#fff"/>
  </g>
</svg>
