<svg xmlns="http://www.w3.org/2000/svg" width="40" height="40" viewBox="0 0 40 40">
  <g id="Group_3036" data-name="Group 3036" transform="translate(-351 -1229)">
    <circle id="Ellipse_15" data-name="Ellipse 15" cx="20" cy="20" r="20" transform="translate(351 1229)" fill="#00a6d3"/>
    <path id="Icon_awesome-suitcase-rolling" data-name="Icon awesome-suitcase-rolling" d="M16.326,7.774H2.332A2.332,2.332,0,0,0,0,10.106V20.99a2.332,2.332,0,0,0,2.332,2.332H3.11V24.1a.777.777,0,0,0,.777.777H5.442a.777.777,0,0,0,.777-.777v-.777h6.219V24.1a.777.777,0,0,0,.777.777H14.77a.777.777,0,0,0,.777-.777v-.777h.777a2.332,2.332,0,0,0,2.332-2.332V10.106a2.332,2.332,0,0,0-2.33-2.332Zm-.777,10.5a.389.389,0,0,1-.389.389H3.5a.389.389,0,0,1-.389-.389v-.777A.389.389,0,0,1,3.5,17.1H15.159a.389.389,0,0,1,.389.389Zm0-4.664a.389.389,0,0,1-.389.389H3.5a.389.389,0,0,1-.39-.394v-.777a.389.389,0,0,1,.389-.389h11.66a.389.389,0,0,1,.389.389ZM7,2.332h4.664V6.219H14V2.332A2.332,2.332,0,0,0,11.661,0H7A2.332,2.332,0,0,0,4.664,2.332V6.219H7Z" transform="translate(362 1237)" fill="#fff"/>
  </g>
</svg>
