<svg id="Time" xmlns="http://www.w3.org/2000/svg" width="40" height="40" viewBox="0 0 40 40">
  <circle id="Ellipse_15" data-name="Ellipse 15" cx="20" cy="20" r="20" fill="#00a6d3"/>
  <g id="Group_154" data-name="Group 154" transform="translate(10.044 10)">
    <path id="Path_91" data-name="Path 91" d="M25.489,38.8A9.955,9.955,0,1,1,32.6,35.918,10,10,0,0,1,25.489,38.8ZM24.053,26.549v3.185a.764.764,0,0,0,.291.689L27.7,32.857a.571.571,0,0,0,.906-.149c.317-.435.637-.866.946-1.307s.269-.608-.151-.917c-.668-.492-1.331-.991-2.015-1.461a.811.811,0,0,1-.4-.758c.011-1.631.011-3.265,0-4.893,0-.52-.165-.7-.681-.721s-1.016-.015-1.523,0c-.571.014-.734.189-.735.762C24.05,24.457,24.053,25.5,24.053,26.549Z" transform="translate(-15.501 -18.808)" fill="#fff"/>
  </g>
</svg>
