<svg xmlns="http://www.w3.org/2000/svg" width="40" height="40" viewBox="0 0 40 40">
  <g id="Group_3038" data-name="Group 3038" transform="translate(-436 -1320)">
    <circle id="Ellipse_15" data-name="Ellipse 15" cx="20" cy="20" r="20" transform="translate(436 1320)" fill="#00a6d3"/>
    <path id="Icon_awesome-wheelchair" data-name="Icon awesome-wheelchair" d="M23.389,18.183l.671,1.351a.754.754,0,0,1-.34,1.011L20.633,22.1a1.509,1.509,0,0,1-2.036-.71l-2.96-6.3H9.052a1.509,1.509,0,0,1-1.494-1.3C5.961,2.608,6.053,3.3,6.035,3.017A3.017,3.017,0,1,1,9.494,6l.22,1.541h6.127A.754.754,0,0,1,16.6,8.3V9.806a.754.754,0,0,1-.754.754h-5.7l.216,1.509H16.6a1.509,1.509,0,0,1,1.365.867l2.712,5.771,1.706-.865a.754.754,0,0,1,1.011.34ZM14.679,16.6H13.524a5.28,5.28,0,1,1-7.851-5.335L5.225,8.133A8.3,8.3,0,1,0,15.893,19.179Z" transform="translate(444 1328)" fill="#fff"/>
  </g>
</svg>
