<svg xmlns="http://www.w3.org/2000/svg" width="40" height="40" viewBox="0 0 40 40">
  <g id="Group_3035" data-name="Group 3035" transform="translate(-595 -1229)">
    <circle id="Ellipse_17" data-name="Ellipse 17" cx="20" cy="20" r="20" transform="translate(595 1229)" fill="#00a6d3"/>
    <path id="Icon_awesome-wifi" data-name="Icon awesome-wifi" d="M26.218,7.324a19.2,19.2,0,0,0-26.008,0,.656.656,0,0,0-.01.949l1.414,1.4a.671.671,0,0,0,.925.016,15.843,15.843,0,0,1,21.36,0,.671.671,0,0,0,.925-.016l1.414-1.4a.657.657,0,0,0-.015-.949Zm-13,8.14a2.643,2.643,0,1,0,1.867.773,2.643,2.643,0,0,0-1.867-.773Zm8.369-3.452a12.677,12.677,0,0,0-16.738,0,.653.653,0,0,0-.024.956l1.422,1.4a.674.674,0,0,0,.911.033,9.3,9.3,0,0,1,12.12,0,.674.674,0,0,0,.911-.033l1.422-1.4a.653.653,0,0,0-.028-.956Z" transform="translate(602 1237.75)" fill="#fff"/>
  </g>
</svg>
